PathFileType	4	(X/Y/Z) shrug_2kg_1.trc																										
DataRate	CameraRate	NumFrames	NumMarkers	Units	OrigDataRate	OrigDataStartFrame	OrigNumFrames																					
100	100	24	9	mm	100	186	433																					
Frame#	Time	gu			centelbow			EpL			centpxt8			centijc7			ij			ts			aa			ai		
		X1	Y1	Z1	X2	Y2	Z2	X3	Y3	Z3	X4	Y4	Z4	X5	Y5	Z5	X6	Y6	Z6	X7	Y7	Z7	X8	Y8	Z8	X9	Y9	Z9
185	1.85	-100.391	49.96	159.231	-123.659	-190.454	210.655	-112.637	-181.245	239.519	-46.816	-153.158	-8.669	-46.816	31.938	-8.669	0	0	0	-136.319	55.524	30.682	-130.083	86.531	145.68	-158.626	-50.1	65.777
186	1.86	-100.277	50.082	159.292	-123.97	-190.307	210.633	-112.965	-181.122	239.511	-46.816	-153.158	-8.669	-46.816	31.938	-8.669	0	0	0	-136.124	55.445	30.742	-129.885	86.382	145.758	-158.485	-50.189	65.773
187	1.87	-100.281	50.117	159.779	-124.485	-190.251	210.979	-113.508	-181.098	239.879	-46.816	-153.158	-8.669	-46.816	31.938	-8.669	0	0	0	-135.973	55.34	31.187	-129.774	86.171	146.234	-158.422	-50.31	66.114
188	1.88	-100.325	49.949	160.336	-125.086	-190.402	211.351	-114.135	-181.289	240.272	-46.816	-153.158	-8.669	-46.816	31.938	-8.669	0	0	0	-135.993	55.084	31.663	-129.812	85.779	146.747	-158.536	-50.589	66.46
189	1.89	-100.292	49.812	160.472	-125.541	-190.522	211.329	-114.595	-181.446	240.264	-46.816	-153.158	-8.669	-46.816	31.938	-8.669	0	0	0	-136.122	54.863	31.763	-129.863	85.427	146.878	-158.684	-50.84	66.455
190	1.9	-100.187	50.039	160.236	-125.761	-190.277	211.016	-114.803	-181.225	239.954	-46.816	-153.158	-8.669	-46.816	31.938	-8.669	0	0	0	-136.246	54.952	31.508	-129.818	85.424	146.639	-158.704	-50.79	66.149
191	1.91	-100.046	50.6	160.047	-125.823	-189.7	210.799	-114.852	-180.661	239.736	-46.816	-153.158	-8.669	-46.816	31.938	-8.669	0	0	0	-136.369	55.36	31.268	-129.762	85.778	146.403	-158.631	-50.428	65.893
192	1.92	-99.852	51.141	160.042	-125.836	-189.147	210.746	-114.853	-180.125	239.684	-46.816	-153.158	-8.669	-46.816	31.938	-8.669	0	0	0	-136.568	55.858	31.248	-129.84	86.232	146.387	-158.596	-49.985	65.857
193	1.93	-99.6	51.391	160.104	-125.878	-188.884	210.718	-114.88	-179.887	239.658	-46.816	-153.158	-8.669	-46.816	31.938	-8.669	0	0	0	-136.848	56.152	31.315	-130.043	86.482	146.461	-158.653	-49.746	65.897
194	1.94	-99.328	51.406	160.18	-125.98	-188.847	210.705	-114.964	-179.878	239.647	-46.816	-153.158	-8.669	-46.816	31.938	-8.669	0	0	0	-137.104	56.068	31.318	-130.23	86.357	146.471	-158.752	-49.87	65.873
195	1.95	-99.078	51.444	160.211	-126.133	-188.77	210.706	-115.101	-179.823	239.649	-46.816	-153.158	-8.669	-46.816	31.938	-8.669	0	0	0	-137.225	55.744	31.244	-130.272	86.003	146.4	-158.803	-50.212	65.786
196	1.96	-98.843	51.618	160.133	-126.328	-188.543	210.648	-115.278	-179.614	239.59	-46.816	-153.158	-8.669	-46.816	31.938	-8.669	0	0	0	-137.157	55.5	31.123	-130.103	85.741	146.278	-158.722	-50.458	65.668
197	1.97	-98.603	51.717	159.981	-126.591	-188.384	210.505	-115.519	-179.478	239.445	-46.816	-153.158	-8.669	-46.816	31.938	-8.669	0	0	0	-136.949	55.423	31.034	-129.777	85.652	146.184	-158.539	-50.527	65.591
198	1.98	-98.367	51.496	159.823	-126.929	-188.545	210.312	-115.832	-179.67	239.252	-46.816	-153.158	-8.669	-46.816	31.938	-8.669	0	0	0	-136.729	55.354	31.014	-129.447	85.566	146.162	-158.384	-50.581	65.577
199	1.99	-98.143	51.079	159.653	-127.213	-188.912	210.088	-116.084	-180.07	239.025	-46.816	-153.158	-8.669	-46.816	31.938	-8.669	0	0	0	-136.55	55.279	30.942	-129.182	85.463	146.092	-158.274	-50.644	65.496
200	2	-97.94	50.813	159.48	-127.299	-189.147	209.895	-116.139	-180.324	238.826	-46.816	-153.158	-8.669	-46.816	31.938	-8.669	0	0	0	-136.407	55.33	30.765	-128.984	85.487	145.918	-158.15	-50.594	65.304
201	2.01	-97.821	50.798	159.464	-127.268	-189.141	209.925	-116.093	-180.319	238.851	-46.816	-153.158	-8.669	-46.816	31.938	-8.669	0	0	0	-136.364	55.47	30.675	-128.938	85.605	145.833	-158.076	-50.467	65.195
202	2.02	-97.842	50.907	159.697	-127.31	-189.015	210.228	-116.139	-180.185	239.153	-46.816	-153.158	-8.669	-46.816	31.938	-8.669	0	0	0	-136.445	55.59	30.792	-129.072	85.702	145.961	-158.124	-50.364	65.281
203	2.03	-97.973	51.099	159.916	-127.46	-188.813	210.481	-116.302	-179.977	239.409	-46.816	-153.158	-8.669	-46.816	31.938	-8.669	0	0	0	-136.569	55.742	30.973	-129.273	85.83	146.152	-158.228	-50.228	65.424
204	2.04	-98.12	51.383	159.81	-127.616	-188.529	210.373	-116.458	-179.693	239.301	-46.816	-153.158	-8.669	-46.816	31.938	-8.669	0	0	0	-136.671	55.964	31.052	-129.447	86.039	146.239	-158.32	-50.017	65.478
205	2.05	-98.152	51.629	159.455	-127.674	-188.279	210.019	-116.503	-179.447	238.943	-46.816	-153.158	-8.669	-46.816	31.938	-8.669	0	0	0	-136.733	56.103	31.021	-129.559	86.18	146.211	-158.383	-49.88	65.438
206	2.06	-98.023	51.646	159.221	-127.639	-188.249	209.794	-116.456	-179.422	238.715	-46.816	-153.158	-8.669	-46.816	31.938	-8.669	0	0	0	-136.728	56.026	30.976	-129.589	86.11	146.166	-158.393	-49.954	65.394
207	2.07	-97.831	51.376	159.306	-127.597	-188.501	209.876	-116.409	-179.681	238.798	-46.816	-153.158	-8.669	-46.816	31.938	-8.669	0	0	0	-136.645	55.835	31.021	-129.533	85.924	146.211	-158.319	-50.143	65.438
208	2.08	-97.684	51.037	159.553	-127.567	-188.829	210.106	-116.378	-180.016	239.03	-46.816	-153.158	-8.669	-46.816	31.938	-8.669	0	0	0	-136.484	55.744	31.139	-129.4	85.834	146.331	-158.139	-50.239	65.552
